# xmcd
#
# Track frame offsets: 
#        150
#        13799
#        28648
#        42748
#        59997
#        73646
#        88495
#        100944
#        120143
#        135892
#        146992
#
# Disc length: 2251 seconds
#
# Revision: 0
# Processed by: cddbd v1.5.2PL0 Copyright (c) Steve Scherf et al.
# Submitted via: ExactAudioCopy v0.99pb4
#
DISCID=a308c90b
DTITLE=SideTrack - Dirty Water
DYEAR=2003
DGENRE=Blues
TTITLE0=Dirty Water
TTITLE1=Keep My Motor Running
TTITLE2=Shoeshine Boy
TTITLE3=Mixed Up World
TTITLE4=Sugar In The Morning
TTITLE5=Sad Days
TTITLE6=Country Girl
TTITLE7=Shoot My Gun
TTITLE8=Papas Swing
TTITLE9=Almost Gone
TTITLE10=Hidden Track
EXTD=
EXTT0=
EXTT1=
EXTT2=
EXTT3=
EXTT4=
EXTT5=
EXTT6=
EXTT7=
EXTT8=
EXTT9=
EXTT10=
PLAYORDER=
